#Comment line ignore any data following # character 
#Hierarchical Translation and Rotation (.htr) file 
[Header]	
#Header keywords are followed by a single value 
FileType HTR		#Single word string
DataType HTRS		#Translation followed by rotation and scale data
FileVersion 1		#integer
NumSegments 84		#integer
NumFrames 2		#integer
DataFrameRate 30		#integer, data frame rate in this file
EulerRotationOrder ZYX
CalibrationUnits mm
RotationUnits Degrees
GlobalAxisofGravity Y
BoneLengthAxis Y
ScaleFactor 1.00
[SegmentNames&Hierarchy]
#CHILD	PARENT
MASTER GLOBAL
root MASTER
chest root
L_mid_tent01 root
R_mid_tent01 root
spine01 root
Bip01_Neck chest
L_humerus chest
R_humerus chest
weapon_bone chest
Bip01_Head Bip01_Neck
eye_left_bone Bip01_Head
eye_right_bone Bip01_Head
L_forearm L_humerus
L_front_hand L_forearm
L_weapon_bone L_forearm
L_front_hand01_01 L_front_hand
L_front_hand02_01 L_front_hand
L_front_hand03_01 L_front_hand
L_front_hand01_02 L_front_hand01_01
L_front_hand02_02 L_front_hand02_01
L_front_hand03_02 L_front_hand03_01
R_forearm R_humerus
R_front_hand R_forearm
R_weapon_bone R_forearm
R_front_hand01_01 R_front_hand
R_front_hand02_01 R_front_hand
R_front_hand03_01 R_front_hand
R_front_hand01_02 R_front_hand01_01
R_front_hand02_02 R_front_hand02_01
R_front_hand03_02 R_front_hand03_01
null_rope01_connect L_mid_tent01
Rope1_Seg01 null_rope01_connect
Rope1_Seg02 Rope1_Seg01
Rope1_Seg03 Rope1_Seg02
Rope1_Seg04 Rope1_Seg03
Rope1_Seg05 Rope1_Seg04
Rope1_Seg06 Rope1_Seg05
Rope1_Seg07 Rope1_Seg06
Rope1_Seg09 Rope1_Seg07
L_mid_hand01 Rope1_Seg09
L_mid_hand02 Rope1_Seg09
L_mid_hand03 Rope1_Seg09
null_rope02_connect R_mid_tent01
Rope2_Seg01 null_rope02_connect
Rope2_Seg02 Rope2_Seg01
Rope2_Seg03 Rope2_Seg02
Rope2_Seg04 Rope2_Seg03
Rope2_Seg05 Rope2_Seg04
Rope2_Seg06 Rope2_Seg05
Rope2_Seg07 Rope2_Seg06
Rope2_Seg09 Rope2_Seg07
R_mid_hand01 Rope2_Seg09
R_mid_hand02 Rope2_Seg09
R_mid_hand03 Rope2_Seg09
spine02 spine01
spine03 spine02
pelvis spine03
null_rope03_connect pelvis
null_rope04_connect pelvis
Rope3_Seg01 null_rope03_connect
Rope3_Seg02 Rope3_Seg01
Rope3_Seg03 Rope3_Seg02
Rope3_Seg04 Rope3_Seg03
Rope3_Seg05 Rope3_Seg04
Rope3_Seg06 Rope3_Seg05
Rope3_Seg07 Rope3_Seg06
Rope3_Seg08 Rope3_Seg07
Rope3_Seg09 Rope3_Seg08
R_rear_hand01 Rope3_Seg09
R_rear_hand02 Rope3_Seg09
R_rear_hand03 Rope3_Seg09
Rope4_Seg01 null_rope04_connect
Rope4_Seg02 Rope4_Seg01
Rope4_Seg03 Rope4_Seg02
Rope4_Seg04 Rope4_Seg03
Rope4_Seg05 Rope4_Seg04
Rope4_Seg06 Rope4_Seg05
Rope4_Seg07 Rope4_Seg06
Rope4_Seg08 Rope4_Seg07
Rope4_Seg09 Rope4_Seg08
L_rear_hand01 Rope4_Seg09
L_rear_hand02 Rope4_Seg09
L_rear_hand03 Rope4_Seg09
[BasePosition]
#SegmentName Tx, Ty, Tz, Rx, Ry, Rz, BoneLength
MASTER 0.000000 0.000000 0.000000 -90.000000 0.000000 0.000000 10.000000 
root 0.000000 0.000000 0.000000 0.000000 0.000000 0.000000 10.000000 
chest 0.000000 0.000000 0.000000 0.000000 0.000000 0.000000 10.000000 
L_mid_tent01 0.000000 0.000000 0.000000 0.000000 0.000000 0.000000 10.000000 
R_mid_tent01 0.000000 0.000000 0.000000 0.000000 0.000000 0.000000 10.000000 
spine01 0.000000 0.000000 0.000000 0.000000 0.000000 0.000000 10.000000 
Bip01_Neck 0.000000 0.000000 0.000000 0.000000 0.000000 0.000000 10.000000 
L_humerus 0.000000 0.000000 0.000000 0.000000 0.000000 0.000000 10.000000 
R_humerus 0.000000 0.000000 0.000000 0.000000 0.000000 0.000000 10.000000 
weapon_bone 0.000000 0.000000 0.000000 0.000000 0.000000 0.000000 10.000000 
Bip01_Head 0.000000 0.000000 0.000000 0.000000 0.000000 0.000000 10.000000 
eye_left_bone 0.000000 0.000000 0.000000 0.000000 0.000000 0.000000 10.000000 
eye_right_bone 0.000000 0.000000 0.000000 0.000000 0.000000 0.000000 10.000000 
L_forearm 0.000000 0.000000 0.000000 0.000000 0.000000 0.000000 10.000000 
L_front_hand 0.000000 0.000000 0.000000 0.000000 0.000000 0.000000 10.000000 
L_weapon_bone 0.000000 0.000000 0.000000 0.000000 0.000000 0.000000 10.000000 
L_front_hand01_01 0.000000 0.000000 0.000000 0.000000 0.000000 0.000000 10.000000 
L_front_hand02_01 0.000000 0.000000 0.000000 0.000000 0.000000 0.000000 10.000000 
L_front_hand03_01 0.000000 0.000000 0.000000 0.000000 0.000000 0.000000 10.000000 
L_front_hand01_02 0.000000 0.000000 0.000000 0.000000 0.000000 0.000000 10.000000 
L_front_hand02_02 0.000000 0.000000 0.000000 0.000000 0.000000 0.000000 10.000000 
L_front_hand03_02 0.000000 0.000000 0.000000 0.000000 0.000000 0.000000 10.000000 
R_forearm 0.000000 0.000000 0.000000 0.000000 0.000000 0.000000 10.000000 
R_front_hand 0.000000 0.000000 0.000000 0.000000 0.000000 0.000000 10.000000 
R_weapon_bone 0.000000 0.000000 0.000000 0.000000 0.000000 0.000000 10.000000 
R_front_hand01_01 0.000000 0.000000 0.000000 0.000000 0.000000 0.000000 10.000000 
R_front_hand02_01 0.000000 0.000000 0.000000 0.000000 0.000000 0.000000 10.000000 
R_front_hand03_01 0.000000 0.000000 0.000000 0.000000 0.000000 0.000000 10.000000 
R_front_hand01_02 0.000000 0.000000 0.000000 0.000000 0.000000 0.000000 10.000000 
R_front_hand02_02 0.000000 0.000000 0.000000 0.000000 0.000000 0.000000 10.000000 
R_front_hand03_02 0.000000 0.000000 0.000000 0.000000 0.000000 0.000000 10.000000 
null_rope01_connect 0.000000 0.000000 0.000000 0.000000 0.000000 0.000000 10.000000 
Rope1_Seg01 0.000000 0.000000 0.000000 0.000000 0.000000 0.000000 10.000000 
Rope1_Seg02 0.000000 0.000000 0.000000 0.000000 0.000000 0.000000 10.000000 
Rope1_Seg03 0.000000 0.000000 0.000000 0.000000 0.000000 0.000000 10.000000 
Rope1_Seg04 0.000000 0.000000 0.000000 0.000000 0.000000 0.000000 10.000000 
Rope1_Seg05 0.000000 0.000000 0.000000 0.000000 0.000000 0.000000 10.000000 
Rope1_Seg06 0.000000 0.000000 0.000000 0.000000 0.000000 0.000000 10.000000 
Rope1_Seg07 0.000000 0.000000 0.000000 0.000000 0.000000 0.000000 10.000000 
Rope1_Seg09 0.000000 0.000000 0.000000 0.000000 0.000000 0.000000 10.000000 
L_mid_hand01 0.000000 0.000000 0.000000 0.000000 0.000000 0.000000 10.000000 
L_mid_hand02 0.000000 0.000000 0.000000 0.000000 0.000000 0.000000 10.000000 
L_mid_hand03 0.000000 0.000000 0.000000 0.000000 0.000000 0.000000 10.000000 
null_rope02_connect 0.000000 0.000000 0.000000 0.000000 0.000000 0.000000 10.000000 
Rope2_Seg01 0.000000 0.000000 0.000000 0.000000 0.000000 0.000000 10.000000 
Rope2_Seg02 0.000000 0.000000 0.000000 0.000000 0.000000 0.000000 10.000000 
Rope2_Seg03 0.000000 0.000000 0.000000 0.000000 0.000000 0.000000 10.000000 
Rope2_Seg04 0.000000 0.000000 0.000000 0.000000 0.000000 0.000000 10.000000 
Rope2_Seg05 0.000000 0.000000 0.000000 0.000000 0.000000 0.000000 10.000000 
Rope2_Seg06 0.000000 0.000000 0.000000 0.000000 0.000000 0.000000 10.000000 
Rope2_Seg07 0.000000 0.000000 0.000000 0.000000 0.000000 0.000000 10.000000 
Rope2_Seg09 0.000000 0.000000 0.000000 0.000000 0.000000 0.000000 10.000000 
R_mid_hand01 0.000000 0.000000 0.000000 0.000000 0.000000 0.000000 10.000000 
R_mid_hand02 0.000000 0.000000 0.000000 0.000000 0.000000 0.000000 10.000000 
R_mid_hand03 0.000000 0.000000 0.000000 0.000000 0.000000 0.000000 10.000000 
spine02 0.000000 0.000000 0.000000 0.000000 0.000000 0.000000 10.000000 
spine03 0.000000 0.000000 0.000000 0.000000 0.000000 0.000000 10.000000 
pelvis 0.000000 0.000000 0.000000 0.000000 0.000000 0.000000 10.000000 
null_rope03_connect 0.000000 0.000000 0.000000 0.000000 0.000000 0.000000 10.000000 
null_rope04_connect 0.000000 0.000000 0.000000 0.000000 0.000000 0.000000 10.000000 
Rope3_Seg01 0.000000 0.000000 0.000000 0.000000 0.000000 0.000000 10.000000 
Rope3_Seg02 0.000000 0.000000 0.000000 0.000000 0.000000 0.000000 10.000000 
Rope3_Seg03 0.000000 0.000000 0.000000 0.000000 0.000000 0.000000 10.000000 
Rope3_Seg04 0.000000 0.000000 0.000000 0.000000 0.000000 0.000000 10.000000 
Rope3_Seg05 0.000000 0.000000 0.000000 0.000000 0.000000 0.000000 10.000000 
Rope3_Seg06 0.000000 0.000000 0.000000 0.000000 0.000000 0.000000 10.000000 
Rope3_Seg07 0.000000 0.000000 0.000000 0.000000 0.000000 0.000000 10.000000 
Rope3_Seg08 0.000000 0.000000 0.000000 0.000000 0.000000 0.000000 10.000000 
Rope3_Seg09 0.000000 0.000000 0.000000 0.000000 0.000000 0.000000 10.000000 
R_rear_hand01 0.000000 0.000000 0.000000 0.000000 0.000000 0.000000 10.000000 
R_rear_hand02 0.000000 0.000000 0.000000 0.000000 0.000000 0.000000 10.000000 
R_rear_hand03 0.000000 0.000000 0.000000 0.000000 0.000000 0.000000 10.000000 
Rope4_Seg01 0.000000 0.000000 0.000000 0.000000 0.000000 0.000000 10.000000 
Rope4_Seg02 0.000000 0.000000 0.000000 0.000000 0.000000 0.000000 10.000000 
Rope4_Seg03 0.000000 0.000000 0.000000 0.000000 0.000000 0.000000 10.000000 
Rope4_Seg04 0.000000 0.000000 0.000000 0.000000 0.000000 0.000000 10.000000 
Rope4_Seg05 0.000000 0.000000 0.000000 0.000000 0.000000 0.000000 10.000000 
Rope4_Seg06 0.000000 0.000000 0.000000 0.000000 0.000000 0.000000 10.000000 
Rope4_Seg07 0.000000 0.000000 0.000000 0.000000 0.000000 0.000000 10.000000 
Rope4_Seg08 0.000000 0.000000 0.000000 0.000000 0.000000 0.000000 10.000000 
Rope4_Seg09 0.000000 0.000000 0.000000 0.000000 0.000000 0.000000 10.000000 
L_rear_hand01 0.000000 0.000000 0.000000 0.000000 0.000000 0.000000 10.000000 
L_rear_hand02 0.000000 0.000000 0.000000 0.000000 0.000000 0.000000 10.000000 
L_rear_hand03 0.000000 0.000000 0.000000 0.000000 0.000000 0.000000 10.000000 
#Beginning of Data. Separated by tabs
#Fr	Tx	Ty	Tz	Rx	Ry	Rz	SF
[MASTER]
5 -0.000104 767.258545 0.000000 0.001660 0.001660 0.001660 767.258484
6 -0.000135 970.101440 0.000000 0.001660 0.001660 0.001660 970.101440
[root]
5 2.187371 -1.455607 567.026733 -90.385803 6.945023 -90.553978 567.032837
6 -5.363657 19.257813 570.775635 -89.633598 6.174377 -90.869568 571.125610
[chest]
5 -84.512650 -34.090519 0.000000 5.518290 0.296303 166.019730 91.129311
6 -84.512650 -34.090519 0.000000 5.652415 -1.591615 165.675262 91.129311
[L_mid_tent01]
5 27.299448 22.177711 -249.918106 -18.592455 29.944513 35.882011 252.380997
6 27.299442 22.177761 -249.918137 -20.580954 26.719419 29.815155 252.381027
[R_mid_tent01]
5 23.228794 24.509907 226.238495 -26.475773 -42.863216 4.648514 228.744751
6 23.228794 24.509907 226.238495 -15.723654 -30.837397 4.953576 228.744751
[spine01]
5 -0.361383 -0.195265 0.000000 0.718620 0.309363 17.851093 0.410763
6 -0.361383 -0.195265 0.000000 0.701968 0.299962 17.982388 0.410763
[Bip01_Neck]
5 165.484543 71.581718 0.000119 175.896118 1.177290 24.871180 180.302734
6 165.484543 71.581718 0.000119 175.896118 1.177290 24.871185 180.302734
[L_humerus]
5 -13.983130 -135.272980 -120.471481 -2.669961 66.928650 87.047806 181.680161
6 -13.983130 -135.272980 -120.471481 -2.665910 66.459290 87.037346 181.680161
[R_humerus]
5 -13.983309 -135.273102 125.287651 -43.796734 -54.981163 130.392868 184.909012
6 -13.983309 -135.273102 125.287651 -50.237541 -53.582745 140.053955 184.909012
[weapon_bone]
5 235.964890 -300.705902 0.000000 0.000000 -89.951546 -128.212341 382.234833
6 235.964890 -300.705902 0.000000 0.000000 -89.951546 -128.212341 382.234833
[Bip01_Head]
5 194.856644 116.291634 2.497537 -2.682201 -1.171421 -45.888641 226.934113
6 195.494675 118.938202 2.141930 -0.587077 0.147335 -49.002701 228.842865
[eye_left_bone]
5 -24.626970 125.451866 -64.772606 0.000000 -90.000000 -99.840431 143.318359
6 -24.626970 125.451866 -64.772606 0.000000 -90.000000 -99.840431 143.318359
[eye_right_bone]
5 -24.626970 125.451866 64.327362 0.000000 -89.972023 80.159393 143.117676
6 -24.626970 125.451866 64.327362 0.000000 -89.960434 80.159386 143.117676
[L_forearm]
5 322.776093 0.000000 -0.000119 0.000194 -0.002339 -99.464561 322.776093
6 322.776093 0.000000 -0.000119 0.000201 -0.002339 -99.843178 322.776093
[L_front_hand]
5 241.149185 -0.042021 -3.300071 -178.667953 -1.835447 -27.422344 241.171753
6 241.149185 -0.042021 -3.300071 -178.667953 -1.835447 -27.422350 241.171753
[L_weapon_bone]
5 156.183838 0.000000 0.000000 0.000014 0.000007 0.000001 156.183838
6 156.183838 0.000000 0.000000 0.000014 0.000007 0.000001 156.183838
[L_front_hand01_01]
5 86.095154 20.947098 -0.655860 -0.366594 -0.477154 75.385574 88.609184
6 86.095154 20.947098 -0.655860 -0.366594 -0.477154 75.385574 88.609184
[L_front_hand02_01]
5 86.935165 -11.437475 24.513514 154.403534 -59.888935 -61.372009 91.046425
6 86.935165 -11.437475 24.513514 154.403519 -59.888931 -61.371990 91.046425
[L_front_hand03_01]
5 86.637497 -14.123976 -20.424902 -153.913849 58.118122 -62.702866 90.126129
6 86.637497 -14.123976 -20.424902 -153.913879 58.118130 -62.702892 90.126129
[L_front_hand01_02]
5 71.020905 -0.000179 0.000030 0.000334 -0.002323 -106.379684 71.020905
6 71.020905 -0.000179 0.000030 0.000334 -0.002323 -106.379684 71.020905
[L_front_hand02_02]
5 71.020927 -0.000119 0.000060 0.000334 -0.002323 -106.379684 71.020927
6 71.020927 -0.000119 0.000060 0.000334 -0.002323 -106.379684 71.020927
[L_front_hand03_02]
5 71.020905 -0.000060 0.000060 0.000334 -0.002323 -106.379684 71.020905
6 71.020905 -0.000060 0.000060 0.000334 -0.002323 -106.379684 71.020905
[R_forearm]
5 322.776428 -0.000060 0.000030 0.211546 0.031395 -98.765755 322.776428
6 322.776428 -0.000060 0.000030 0.210840 0.035834 -101.174438 322.776428
[R_front_hand]
5 238.847015 -0.006795 2.210259 -7.713239 -0.914204 -40.874794 238.857239
6 238.847015 -0.006795 2.210259 -10.385712 -1.416898 -37.691498 238.857239
[R_weapon_bone]
5 155.664093 0.002503 -0.000030 0.003487 0.001180 -90.988930 155.664078
6 155.664093 0.002503 -0.000030 0.003487 0.001180 -90.988930 155.664078
[R_front_hand01_01]
5 87.624611 14.231146 22.918642 -116.960213 3.496535 -1.324067 91.683487
6 87.624611 14.231146 22.918642 -117.926445 -14.954013 8.243813 91.683487
[R_front_hand02_01]
5 89.356956 14.367283 -19.491137 118.419647 -4.256951 0.609903 92.579636
6 89.356956 14.367283 -19.491137 119.277702 13.958570 10.614038 92.579636
[R_front_hand03_01]
5 87.286232 -22.307278 -0.143439 -0.387969 -0.231463 4.231843 90.091743
6 87.286232 -22.307278 -0.143439 -0.281789 -0.354047 -16.509243 90.091743
[R_front_hand01_02]
5 71.020905 0.000060 0.000119 0.001777 0.001534 8.377238 71.020905
6 71.020905 0.000060 0.000119 0.001807 0.001498 10.665142 71.020905
[R_front_hand02_02]
5 71.020844 -0.000030 -0.000119 0.001777 0.001534 8.377238 71.020836
6 71.020844 -0.000030 -0.000119 0.001807 0.001498 10.665142 71.020836
[R_front_hand03_02]
5 71.020905 0.000000 0.000030 0.001777 0.001534 8.377238 71.020905
6 71.020905 0.000000 0.000030 0.001807 0.001498 10.665142 71.020905
[null_rope01_connect]
5 328.732483 0.000000 -0.000238 -166.222733 -54.720818 -151.746964 328.732483
6 328.732483 0.000000 -0.000238 -164.358948 -56.861523 -146.852737 328.732483
[Rope1_Seg01]
5 0.000000 0.000000 0.000000 164.256897 -62.739796 109.315453 0.000000
6 0.000000 0.000000 0.000000 151.090897 -67.689415 125.648994 0.000000
[Rope1_Seg02]
5 139.999863 -0.000179 0.000000 -4.443562 -3.212222 -5.059514 139.999863
6 139.999863 -0.000179 0.000000 -3.047187 -2.198918 -5.806230 139.999863
[Rope1_Seg03]
5 139.999924 0.000060 -0.000060 -7.665895 -5.917026 -11.400446 139.999924
6 139.999924 0.000060 -0.000060 -4.703702 -3.848556 -12.569958 139.999924
[Rope1_Seg04]
5 139.999924 -0.000060 -0.000119 -8.093478 -6.507215 -33.851547 139.999924
6 139.999924 -0.000060 -0.000119 -3.270753 -2.886002 -31.535551 139.999924
[Rope1_Seg05]
5 139.999832 0.000119 -0.000060 13.199733 -20.480579 -54.521339 139.999832
6 139.999832 0.000119 -0.000060 24.976145 -18.429119 -59.434792 139.999832
[Rope1_Seg06]
5 139.999954 0.000119 -0.000060 10.822580 -14.644841 -22.384886 139.999954
6 139.999954 0.000119 -0.000060 17.783878 -18.537214 -23.590652 139.999954
[Rope1_Seg07]
5 139.999985 0.000060 0.000000 2.955070 -4.686633 -6.143037 139.999985
6 139.999985 0.000060 0.000000 3.775271 -5.921701 -4.902211 139.999985
[Rope1_Seg09]
5 121.602913 0.000119 -0.000089 -89.793175 -1.359789 0.847147 121.602913
6 121.602913 0.000119 -0.000089 -89.793175 -1.359789 0.847147 121.602913
[L_mid_hand01]
5 103.859421 1.038730 8.195221 114.520050 -53.310989 -20.622829 104.187431
6 103.859421 1.038730 8.195221 114.519981 -53.311138 -20.622728 104.187431
[L_mid_hand02]
5 105.572853 -4.139662 -10.864139 -155.067673 38.166618 -52.448807 106.211075
6 105.572853 -4.139662 -10.864139 -155.067673 38.166626 -52.448826 106.211075
[L_mid_hand03]
5 104.641464 17.579376 -3.913581 -10.970133 15.317463 57.626949 106.179977
6 104.641464 17.579376 -3.913581 -10.970131 15.317461 57.626949 106.179977
[null_rope02_connect]
5 328.732849 0.000179 -0.000119 115.103058 -41.307056 -26.405390 328.732849
6 328.732849 0.000179 -0.000119 107.539223 -56.714355 -24.279488 328.732849
[Rope2_Seg01]
5 0.000010 0.000130 0.000144 -73.737808 23.586390 -19.375162 0.000194
6 0.000013 0.000144 0.000142 -94.003654 30.322727 -22.877533 0.000203
[Rope2_Seg02]
5 139.999741 -0.000060 -0.000119 -18.321348 -6.006301 15.416123 139.999756
6 139.999741 -0.000060 -0.000119 -14.847208 -5.429734 11.711166 139.999756
[Rope2_Seg03]
5 140.000107 0.000030 0.000000 -13.761072 -20.090065 25.059509 140.000107
6 140.000107 0.000030 0.000000 -12.937596 -15.864423 20.567799 140.000107
[Rope2_Seg04]
5 139.999802 0.000000 -0.000060 -5.447371 -23.941946 20.080851 139.999802
6 139.999802 0.000000 -0.000060 -9.103980 -25.443523 25.848103 139.999802
[Rope2_Seg05]
5 139.999985 -0.000060 0.000119 1.017351 -8.087022 13.682102 139.999985
6 139.999985 -0.000060 0.000119 -0.742333 -13.408058 7.888407 139.999985
[Rope2_Seg06]
5 139.999893 -0.000030 -0.000119 4.170862 -3.086683 13.067404 139.999893
6 139.999893 -0.000030 -0.000119 -0.815810 -7.773973 1.524471 139.999893
[Rope2_Seg07]
5 139.999893 0.000060 -0.000060 3.331706 -2.857615 8.071950 139.999893
6 139.999893 0.000060 -0.000060 -0.302739 -6.519924 2.733808 139.999893
[Rope2_Seg09]
5 121.338966 0.000089 -0.000060 71.587112 -0.364331 -1.504531 121.338966
6 121.338966 0.000089 -0.000060 73.653778 -0.235248 -1.514882 121.338966
[R_mid_hand01]
5 104.680779 11.144459 -10.335981 -39.248650 29.171114 33.551922 105.778534
6 104.680779 11.144459 -10.335981 -39.248650 29.171114 33.551922 105.778534
[R_mid_hand02]
5 104.070427 2.443552 8.231699 71.586517 -38.253605 12.182658 104.424065
6 104.070427 2.443552 8.231699 71.586517 -38.253605 12.182658 104.424065
[R_mid_hand03]
5 106.028137 -11.221827 -5.996406 -168.987167 11.419016 -42.774635 106.788818
6 106.028137 -11.221827 -5.996406 -168.987167 11.419020 -42.774647 106.788818
[spine02]
5 129.756927 0.001550 0.000119 -0.250919 -6.271788 -4.344381 129.756927
6 129.756927 0.001550 0.000119 -0.247779 -7.010342 -4.344582 129.756927
[spine03]
5 78.556694 0.095452 -5.456890 1.574544 4.383740 11.927958 78.746056
6 78.556793 0.095321 -5.455993 1.719034 4.262611 13.923826 78.746086
[pelvis]
5 169.435242 0.051022 0.000000 -0.045528 -0.509695 3.043899 169.435257
6 169.435242 0.051022 0.000000 -0.047982 -0.511509 3.360516 169.435257
[null_rope03_connect]
5 -1.257226 -2.466202 137.391083 29.902590 -88.446060 24.741518 137.418976
6 -1.257226 -2.466202 137.391083 25.886868 -87.367447 27.104595 137.418976
[null_rope04_connect]
5 -1.259640 -2.480268 -137.844437 29.902590 -88.446060 24.741518 137.872513
6 -1.259640 -2.480268 -137.844437 25.886868 -87.367447 27.104595 137.872513
[Rope3_Seg01]
5 0.000068 -0.000100 0.000000 -131.881546 16.494896 -80.104271 0.000121
6 0.000066 -0.000115 0.000000 -132.258163 18.894314 -80.420456 0.000133
[Rope3_Seg02]
5 139.999924 -0.000119 0.000060 -0.041403 1.071603 3.330331 139.999924
6 139.999924 -0.000119 0.000060 0.056131 1.543827 2.940746 139.999924
[Rope3_Seg03]
5 139.999924 -0.000119 0.000119 -0.140250 1.303243 4.056641 139.999924
6 139.999924 -0.000119 0.000119 0.031471 1.970163 3.747309 139.999924
[Rope3_Seg04]
5 139.999924 0.000119 0.000000 -0.417640 2.179603 6.338515 139.999924
6 139.999924 0.000119 0.000000 -0.174895 2.903735 6.124883 139.999924
[Rope3_Seg05]
5 139.999924 -0.000238 0.000060 -0.656218 1.926661 6.538393 139.999924
6 139.999924 -0.000238 0.000060 -0.343588 4.640718 10.093432 139.999924
[Rope3_Seg06]
5 139.999893 -0.000119 -0.000060 0.262688 -0.758651 -0.578753 139.999893
6 139.999893 -0.000119 -0.000060 1.626058 1.077500 -1.907286 139.999893
[Rope3_Seg07]
5 139.999771 0.000060 -0.000119 0.422835 -0.368380 -0.242075 139.999771
6 139.999771 0.000060 -0.000119 1.592469 -0.587472 -4.261265 139.999771
[Rope3_Seg08]
5 139.999985 -0.000060 0.000000 0.436741 -0.063617 0.258588 139.999985
6 139.999985 -0.000060 0.000000 0.875578 0.201112 -0.857396 139.999985
[Rope3_Seg09]
5 90.185997 -0.000179 -0.000060 86.097816 -1.358607 -0.847220 90.185997
6 90.185997 -0.000179 -0.000060 84.343880 -1.358475 -0.847977 90.185997
[R_rear_hand01]
5 103.366196 -6.073594 -10.757982 -157.171555 9.603128 -11.017536 104.101845
6 103.366196 -6.073594 -10.757982 -158.916794 13.108926 -19.868397 104.101845
[R_rear_hand02]
5 100.509819 12.039542 -7.992327 -38.131180 7.480927 12.434102 101.543350
6 100.509819 12.039542 -7.992327 -36.772388 13.179056 19.981798 101.543350
[R_rear_hand03]
5 101.539970 5.215704 5.435467 84.201599 -11.195566 4.994817 101.819031
6 101.539970 5.215704 5.435467 83.929695 -20.504074 5.995993 101.819031
[Rope4_Seg01]
5 0.000091 -0.000030 0.000000 46.903866 22.355234 -104.763115 0.000096
6 0.000090 -0.000066 0.000000 48.498535 24.723991 -101.128616 0.000112
[Rope4_Seg02]
5 139.999985 0.000060 0.000119 0.303639 0.645380 -8.903054 139.999985
6 139.999985 0.000060 0.000119 0.817894 -1.024501 -9.140691 139.999985
[Rope4_Seg03]
5 139.999924 0.000000 -0.000238 0.000107 -0.597429 -5.396163 139.999924
6 139.999924 0.000000 -0.000238 0.177955 -0.845288 -6.432597 139.999924
[Rope4_Seg04]
5 139.999985 0.000000 0.000119 -0.030366 0.466133 -1.793841 139.999985
6 139.999985 0.000000 0.000119 -0.004088 -0.364532 -2.857247 139.999985
[Rope4_Seg05]
5 139.999802 -0.000060 -0.000119 0.108669 1.781162 1.155856 139.999802
6 139.999802 -0.000060 -0.000119 0.145470 0.320763 1.896357 139.999802
[Rope4_Seg06]
5 139.999924 0.000000 0.000060 0.136165 1.938543 1.809489 139.999924
6 139.999924 0.000000 0.000060 0.157838 0.565771 3.568905 139.999924
[Rope4_Seg07]
5 139.999802 0.000000 0.000000 0.140743 1.039525 0.611289 139.999802
6 139.999802 0.000000 0.000000 0.119001 0.262178 1.564828 139.999802
[Rope4_Seg08]
5 139.999924 0.000000 0.000119 -1.449968 0.704165 0.403289 139.999924
6 139.999924 0.000000 0.000119 -1.470975 0.156971 0.924577 139.999924
[Rope4_Seg09]
5 90.185791 0.000060 0.000060 -135.617828 2.228885 0.850567 90.185791
6 90.185791 0.000060 0.000060 -135.617828 2.228885 0.850567 90.185791
[L_rear_hand01]
5 101.696655 -8.392275 -7.654577 -19.915022 -33.950897 119.950104 102.329041
6 101.696655 -8.392275 -7.654577 -19.915020 -33.950905 119.950104 102.329041
[L_rear_hand02]
5 102.726799 -1.568258 5.773216 77.862221 61.878510 165.399185 102.900848
6 102.726799 -1.568258 5.773216 77.862221 61.878510 165.399200 102.900848
[L_rear_hand03]
5 104.552910 9.721220 -10.420293 -173.099182 -23.740307 -117.327896 105.519653
6 104.552910 9.721220 -10.420293 -173.099182 -23.740307 -117.327896 105.519653
